# xmcd
#
# Track frame offsets:
#	150
#	14909
#	33309
#	48952
#	68844
#	87353
#	101137
#	118337
#	136199
#	149168
#	166033
#	179536
#
# Disc length: 2603 seconds
#
# Revision: 1
# Processed by: cddbd v1.5.2PL0 Copyright (c) Steve Scherf et al.
# Submitted via: audiograbber 1.83.01
#
DISCID=b00a290c
DTITLE=Hoel and Albrigtsen - Two Rivers One Road
DYEAR=2009
DGENRE=Blues
TTITLE0=Seeds
TTITLE1=Burgundy
TTITLE2=I got time
TTITLE3=Buy me
TTITLE4=On eyed woman
TTITLE5=The boys we used to be
TTITLE6=Orleans parish prison blues
TTITLE7=Looking for a place to land
TTITLE8=Lucky in love
TTITLE9=I want some of that
TTITLE10=You could really hurt me
TTITLE11=Where are you
EXTD=
EXTT0=
EXTT1=
EXTT2=
EXTT3=
EXTT4=
EXTT5=
EXTT6=
EXTT7=
EXTT8=
EXTT9=
EXTT10=
EXTT11=
PLAYORDER=
